<?xml version="1.0" encoding="UTF-8"?>
<svg width="234px" height="155px" viewBox="0 0 234 155" version="1.1" xmlns="http://www.w3.org/2000/svg" xmlns:xlink="http://www.w3.org/1999/xlink">
    <!-- Generator: Sketch 55.2 (78181) - https://sketchapp.com -->
    <title>编组 16</title>
    <desc>Created with Sketch.</desc>
    <g id="页面1" stroke="none" stroke-width="1" fill="none" fill-rule="evenodd">
        <g id="编组-16" fill-rule="nonzero">
            <path d="M120.43925,28.4354056 C105.727991,30.8977644 90.9940675,29.572515 76.8102707,27.7366001 C62.6264739,25.9006852 48.4756436,23.5561722 33.7334783,24.0151509 C24.2556362,24.3128668 13.712567,26.1818613 7.15431237,31.917028 C0.845366167,37.4351102 -0.0570892337,44.9793147 0.00266237958,51.8019715 C0.0479911897,56.9334364 0.528064497,62.2489064 3.99159767,66.37558 C6.396085,69.2390284 10.0718394,71.318905 12.8513196,73.9673364 C22.5352018,83.1841255 19.788688,97.4620856 13.6569362,109.55266 C10.7723756,115.225803 7.24703039,120.793505 5.31231436,126.609303 C3.37759833,132.425101 3.18598109,138.68954 6.8287691,143.504682 C10.4427115,148.278474 17.355355,151.028212 24.548213,152.502319 C39.1543919,155.493951 55.3656227,153.949549 71.0452702,151.801446 C105.750656,147.023519 140.068686,139.295309 174.287816,131.581572 C186.953098,128.728461 199.67401,125.85881 211.859219,121.657708 C218.625574,119.329735 225.509372,116.400127 229.842394,111.766923 C235.341603,105.884966 235.391052,97.7660039 229.957776,92.8412862 C220.842565,84.5713991 200.450781,86.1261379 193.365064,76.7150064 C189.462666,71.5463269 191.051235,64.5954868 194.032634,58.4861077 C200.419875,45.3783367 212.936808,32.5083249 211.133958,19.3364623 C209.897718,10.2892058 201.16574,2.71398925 189.565686,0.619640344 C177.409323,-1.57394721 161.871843,2.08961277 154.996287,11.0851824 C147.916751,20.3722656 133.428015,26.2645602 120.43925,28.4354056 Z" id="路径" fill="#6C63FF" opacity="0.1"></path>
            <g id="编组-28" transform="translate(19.000000, 17.000000)">
                <circle id="椭圆形" fill="#E6E6E6" cx="11.5" cy="2.5" r="2.5"></circle>
                <circle id="椭圆形" fill="#E6E6E6" cx="22.5" cy="2.5" r="2.5"></circle>
                <circle id="椭圆形" fill="#E6E6E6" cx="34.5" cy="2.5" r="2.5"></circle>
                <circle id="椭圆形" fill="#E6E6E6" cx="45.5" cy="2.5" r="2.5"></circle>
                <circle id="椭圆形" fill="#E6E6E6" cx="55.5" cy="2.5" r="2.5"></circle>
                <circle id="椭圆形" fill="#E6E6E6" cx="67.5" cy="2.5" r="2.5"></circle>
                <circle id="椭圆形" fill="#E6E6E6" cx="77.5" cy="2.5" r="2.5"></circle>
                <circle id="椭圆形" fill="#E6E6E6" cx="88.5" cy="2.5" r="2.5"></circle>
                <circle id="椭圆形" fill="#E6E6E6" cx="99.5" cy="2.5" r="2.5"></circle>
                <circle id="椭圆形" fill="#E6E6E6" cx="111.5" cy="2.5" r="2.5"></circle>
                <circle id="椭圆形" fill="#E6E6E6" cx="11.5" cy="13.5" r="2.5"></circle>
                <circle id="椭圆形" fill="#E6E6E6" cx="22.5" cy="13.5" r="2.5"></circle>
                <circle id="椭圆形" fill="#E6E6E6" cx="34.5" cy="13.5" r="2.5"></circle>
                <circle id="椭圆形" fill="#6C63FF" cx="45.5" cy="13.5" r="2.5"></circle>
                <circle id="椭圆形" fill="#E6E6E6" cx="55.5" cy="13.5" r="2.5"></circle>
                <circle id="椭圆形" fill="#E6E6E6" cx="67.5" cy="13.5" r="2.5"></circle>
                <circle id="椭圆形" fill="#E6E6E6" cx="77.5" cy="13.5" r="2.5"></circle>
                <circle id="椭圆形" fill="#E6E6E6" cx="88.5" cy="13.5" r="2.5"></circle>
                <circle id="椭圆形" fill="#E6E6E6" cx="99.5" cy="13.5" r="2.5"></circle>
                <circle id="椭圆形" fill="#E6E6E6" cx="111.5" cy="13.5" r="2.5"></circle>
                <circle id="椭圆形" fill="#E6E6E6" cx="11.5" cy="25.5" r="2.5"></circle>
                <circle id="椭圆形" fill="#E6E6E6" cx="22.5" cy="25.5" r="2.5"></circle>
                <circle id="椭圆形" fill="#E6E6E6" cx="34.5" cy="25.5" r="2.5"></circle>
                <circle id="椭圆形" fill="#E6E6E6" cx="45.5" cy="25.5" r="2.5"></circle>
                <circle id="椭圆形" fill="#E6E6E6" cx="55.5" cy="25.5" r="2.5"></circle>
                <circle id="椭圆形" fill="#6C63FF" cx="67.5" cy="25.5" r="2.5"></circle>
                <circle id="椭圆形" fill="#E6E6E6" cx="77.5" cy="25.5" r="2.5"></circle>
                <circle id="椭圆形" fill="#E6E6E6" cx="88.5" cy="25.5" r="2.5"></circle>
                <circle id="椭圆形" fill="#E6E6E6" cx="99.5" cy="25.5" r="2.5"></circle>
                <circle id="椭圆形" fill="#E6E6E6" cx="111.5" cy="25.5" r="2.5"></circle>
                <circle id="椭圆形" fill="#E6E6E6" cx="11.5" cy="35.5" r="2.5"></circle>
                <circle id="椭圆形" fill="#E6E6E6" cx="22.5" cy="35.5" r="2.5"></circle>
                <circle id="椭圆形" fill="#E6E6E6" cx="34.5" cy="35.5" r="2.5"></circle>
                <circle id="椭圆形" fill="#E6E6E6" cx="45.5" cy="35.5" r="2.5"></circle>
                <circle id="椭圆形" fill="#6C63FF" cx="55.5" cy="35.5" r="2.5"></circle>
                <circle id="椭圆形" fill="#E6E6E6" cx="67.5" cy="35.5" r="2.5"></circle>
                <circle id="椭圆形" fill="#E6E6E6" cx="77.5" cy="35.5" r="2.5"></circle>
                <circle id="椭圆形" fill="#E6E6E6" cx="88.5" cy="35.5" r="2.5"></circle>
                <circle id="椭圆形" fill="#E6E6E6" cx="99.5" cy="35.5" r="2.5"></circle>
                <circle id="椭圆形" fill="#E6E6E6" cx="111.5" cy="35.5" r="2.5"></circle>
                <circle id="椭圆形" fill="#E6E6E6" cx="11.5" cy="46.5" r="2.5"></circle>
                <circle id="椭圆形" fill="#6C63FF" cx="22.5" cy="46.5" r="2.5"></circle>
                <circle id="椭圆形" fill="#E6E6E6" cx="34.5" cy="46.5" r="2.5"></circle>
                <circle id="椭圆形" fill="#E6E6E6" cx="45.5" cy="46.5" r="2.5"></circle>
                <circle id="椭圆形" fill="#E6E6E6" cx="55.5" cy="46.5" r="2.5"></circle>
                <circle id="椭圆形" fill="#E6E6E6" cx="67.5" cy="46.5" r="2.5"></circle>
                <circle id="椭圆形" fill="#E6E6E6" cx="77.5" cy="46.5" r="2.5"></circle>
                <circle id="椭圆形" fill="#E6E6E6" cx="88.5" cy="46.5" r="2.5"></circle>
                <circle id="椭圆形" fill="#E6E6E6" cx="99.5" cy="46.5" r="2.5"></circle>
                <circle id="椭圆形" fill="#E6E6E6" cx="111.5" cy="46.5" r="2.5"></circle>
                <circle id="椭圆形" fill="#E6E6E6" cx="11.5" cy="58.5" r="2.5"></circle>
                <circle id="椭圆形" fill="#E6E6E6" cx="22.5" cy="58.5" r="2.5"></circle>
                <circle id="椭圆形" fill="#E6E6E6" cx="34.5" cy="58.5" r="2.5"></circle>
                <circle id="椭圆形" fill="#E6E6E6" cx="45.5" cy="58.5" r="2.5"></circle>
                <circle id="椭圆形" fill="#E6E6E6" cx="55.5" cy="58.5" r="2.5"></circle>
                <circle id="椭圆形" fill="#E6E6E6" cx="67.5" cy="58.5" r="2.5"></circle>
                <circle id="椭圆形" fill="#E6E6E6" cx="77.5" cy="58.5" r="2.5"></circle>
                <circle id="椭圆形" fill="#E6E6E6" cx="88.5" cy="58.5" r="2.5"></circle>
                <circle id="椭圆形" fill="#E6E6E6" cx="99.5" cy="58.5" r="2.5"></circle>
                <circle id="椭圆形" fill="#E6E6E6" cx="111.5" cy="58.5" r="2.5"></circle>
                <circle id="椭圆形" fill="#E6E6E6" cx="11.5" cy="69.5" r="2.5"></circle>
                <circle id="椭圆形" fill="#E6E6E6" cx="22.5" cy="69.5" r="2.5"></circle>
                <circle id="椭圆形" fill="#6C63FF" cx="34.5" cy="69.5" r="2.5"></circle>
                <circle id="椭圆形" fill="#E6E6E6" cx="45.5" cy="69.5" r="2.5"></circle>
                <circle id="椭圆形" fill="#E6E6E6" cx="55.5" cy="69.5" r="2.5"></circle>
                <circle id="椭圆形" fill="#E6E6E6" cx="67.5" cy="69.5" r="2.5"></circle>
                <circle id="椭圆形" fill="#E6E6E6" cx="77.5" cy="69.5" r="2.5"></circle>
                <circle id="椭圆形" fill="#E6E6E6" cx="88.5" cy="69.5" r="2.5"></circle>
                <circle id="椭圆形" fill="#E6E6E6" cx="99.5" cy="69.5" r="2.5"></circle>
                <circle id="椭圆形" fill="#E6E6E6" cx="111.5" cy="69.5" r="2.5"></circle>
                <circle id="椭圆形" fill="#E6E6E6" cx="11.5" cy="79.5" r="2.5"></circle>
                <circle id="椭圆形" fill="#E6E6E6" cx="22.5" cy="79.5" r="2.5"></circle>
                <circle id="椭圆形" fill="#E6E6E6" cx="34.5" cy="79.5" r="2.5"></circle>
                <circle id="椭圆形" fill="#E6E6E6" cx="45.5" cy="79.5" r="2.5"></circle>
                <circle id="椭圆形" fill="#E6E6E6" cx="55.5" cy="79.5" r="2.5"></circle>
                <circle id="椭圆形" fill="#E6E6E6" cx="67.5" cy="79.5" r="2.5"></circle>
                <circle id="椭圆形" fill="#E6E6E6" cx="77.5" cy="79.5" r="2.5"></circle>
                <circle id="椭圆形" fill="#E6E6E6" cx="88.5" cy="79.5" r="2.5"></circle>
                <circle id="椭圆形" fill="#E6E6E6" cx="99.5" cy="79.5" r="2.5"></circle>
                <circle id="椭圆形" fill="#E6E6E6" cx="111.5" cy="79.5" r="2.5"></circle>
                <circle id="椭圆形" fill="#E6E6E6" cx="11.5" cy="90.5" r="2.5"></circle>
                <circle id="椭圆形" fill="#E6E6E6" cx="22.5" cy="90.5" r="2.5"></circle>
                <circle id="椭圆形" fill="#E6E6E6" cx="34.5" cy="90.5" r="2.5"></circle>
                <circle id="椭圆形" fill="#E6E6E6" cx="45.5" cy="90.5" r="2.5"></circle>
                <circle id="椭圆形" fill="#E6E6E6" cx="55.5" cy="90.5" r="2.5"></circle>
                <circle id="椭圆形" fill="#E6E6E6" cx="67.5" cy="90.5" r="2.5"></circle>
                <circle id="椭圆形" fill="#E6E6E6" cx="77.5" cy="90.5" r="2.5"></circle>
                <circle id="椭圆形" fill="#E6E6E6" cx="88.5" cy="90.5" r="2.5"></circle>
                <circle id="椭圆形" fill="#E6E6E6" cx="99.5" cy="90.5" r="2.5"></circle>
                <circle id="椭圆形" fill="#E6E6E6" cx="111.5" cy="90.5" r="2.5"></circle>
                <circle id="椭圆形" fill="#E6E6E6" cx="11.5" cy="102.5" r="2.5"></circle>
                <circle id="椭圆形" fill="#E6E6E6" cx="22.5" cy="102.5" r="2.5"></circle>
                <circle id="椭圆形" fill="#E6E6E6" cx="34.5" cy="102.5" r="2.5"></circle>
                <circle id="椭圆形" fill="#E6E6E6" cx="45.5" cy="102.5" r="2.5"></circle>
                <circle id="椭圆形" fill="#E6E6E6" cx="55.5" cy="102.5" r="2.5"></circle>
                <circle id="椭圆形" fill="#E6E6E6" cx="67.5" cy="102.5" r="2.5"></circle>
                <circle id="椭圆形" fill="#E6E6E6" cx="77.5" cy="102.5" r="2.5"></circle>
                <circle id="椭圆形" fill="#E6E6E6" cx="88.5" cy="102.5" r="2.5"></circle>
                <circle id="椭圆形" fill="#E6E6E6" cx="99.5" cy="102.5" r="2.5"></circle>
                <circle id="椭圆形" fill="#E6E6E6" cx="111.5" cy="102.5" r="2.5"></circle>
                <polygon id="路径" fill="#3F3D56" points="90.0238204 86.4667526 115.508567 42 64.5117709 42 39 85.9998613 64.5117709 130 115.535591 130 141 86.0822539"></polygon>
                <polygon id="路径" fill="#6C63FF" points="147.951448 81.6195372 148 81.5380095 122.000142 38 121.972317 38 96 82"></polygon>
                <path d="M185.602679,39.2072057 C185.200893,38.6998762 185,37.957116 185,36.9789251 C185,36.0099404 185.200893,35.2716824 185.602679,34.7641511 C186.021966,34.24831 186.636447,33.9679814 187.270888,34.0031074 C187.911121,33.9670079 188.531909,34.2469465 188.958568,34.7641511 C189.364335,35.2716028 189.567293,36.0098608 189.567442,36.9789251 C189.567442,37.9572344 189.364484,38.6999946 188.958568,39.2072057 C188.531956,39.7244956 187.911148,40.0044916 187.270888,39.9683803 C186.63642,40.0035177 186.021919,39.7231316 185.602679,39.2072057 L185.602679,39.2072057 Z M187.99437,38.4187702 C188.175434,37.9653093 188.253714,37.471676 188.222701,36.9789251 C188.25251,36.4921688 188.171851,36.0049107 187.987738,35.5595247 C187.84884,35.2734232 187.569537,35.0997917 187.270894,35.1138907 C186.977581,35.1015128 186.704713,35.2758252 186.573299,35.5595247 C186.393904,36.0063254 186.315559,36.4928874 186.344749,36.9789251 C186.314887,37.4693838 186.393219,37.9604961 186.573299,38.411835 C186.70459,38.6956722 186.977526,38.870074 187.270894,38.8575883 C187.57055,38.8761387 187.852892,38.7048866 187.99437,38.4187702 L187.99437,38.4187702 Z M187.182394,43.9039861 L192.409376,34.1402437 L193.817617,34.1402437 L188.577799,43.9039861 L187.182394,43.9039861 Z M192.035239,43.2389445 C191.633233,42.7314967 191.43234,41.984113 191.43256,40.9967934 C191.43256,40.027927 191.633453,39.2919808 192.035239,38.7889547 C192.48064,38.3061731 193.085493,38.0348341 193.71628,38.0348341 C194.347067,38.0348341 194.95192,38.3061731 195.397321,38.7889547 C195.798888,39.2918547 195.999781,40.0323837 196,41.0105416 C196,41.9888548 195.799107,42.7316558 195.397321,43.2389445 C194.953945,43.7258224 194.348334,44 193.71628,44 C193.084226,44 192.478615,43.7258224 192.035239,43.2389445 Z M194.426486,42.4435738 C194.606552,41.9921875 194.684883,41.5010392 194.655035,41.0105416 C194.684799,40.5238503 194.604219,40.0366612 194.42029,39.5912606 C194.276031,39.3157915 194.005818,39.1455042 193.712962,39.1455042 C193.420105,39.1455042 193.149892,39.3157915 193.005633,39.5912606 C192.826425,40.038075 192.748159,40.5245683 192.777302,41.0105416 C192.747516,41.501013 192.825767,41.9921278 193.005633,42.4435738 C193.151307,42.7191392 193.422426,42.8892047 193.716059,42.8892047 C194.009693,42.8892047 194.280812,42.7191392 194.426486,42.4435738 L194.426486,42.4435738 Z" id="形状" fill="#3F3D56"></path>
                <path d="M0.602681227,120.207207 C0.200893742,119.699876 0,118.957114 0,117.978923 C0,117.009938 0.200893742,116.271681 0.602681227,115.764152 C1.021967,115.248309 1.63644779,114.96798 2.27088822,115.003108 C2.91112092,114.967006 3.53190953,115.246945 3.95856798,115.764152 C4.3643351,116.2716 4.56729316,117.009857 4.56744215,117.978923 C4.56744215,118.957235 4.36448409,119.699996 3.95856798,120.207207 C3.53195543,120.724497 2.9111474,121.004493 2.27088822,120.968382 C1.63642106,121.003519 1.02192075,120.723133 0.602681227,120.207207 L0.602681227,120.207207 Z M2.99436956,119.418769 C3.17543409,118.965308 3.25371466,118.471674 3.22270074,117.978923 C3.25250948,117.492167 3.17184939,117.004908 2.98773503,116.559523 C2.84883591,116.273422 2.56953399,116.099791 2.27089091,116.113888 C1.97757871,116.101512 1.70471099,116.275824 1.57329607,116.559523 C1.3939028,117.006324 1.31555752,117.492886 1.34474679,117.978923 C1.31488592,118.469382 1.39321831,118.960494 1.57329607,119.411834 C1.7045877,119.695671 1.97752302,119.870073 2.27089091,119.857587 C2.57054864,119.87614 2.85289251,119.704887 2.99436956,119.418769 L2.99436956,119.418769 Z M2.18239103,124.903986 L7.40937103,115.140241 L8.81761166,115.140241 L3.57779881,124.903986 L2.18239103,124.903986 Z M7.03523639,124.238944 C6.6332317,123.731496 6.43233886,122.984112 6.43255767,121.996793 C6.43255767,121.027928 6.6334507,120.291982 7.03523639,119.788953 C7.48063769,119.306172 8.08549063,119.034833 8.71627758,119.034833 C9.34706453,119.034833 9.95191747,119.306172 10.3973188,119.788953 C10.7988855,120.291853 10.9997792,121.032383 11,122.010541 C11,122.988852 10.7991063,123.731653 10.3973188,124.238944 C9.9539428,124.725822 9.34833142,125 8.71627758,125 C8.08422374,125 7.47861236,124.725822 7.03523639,124.238944 L7.03523639,124.238944 Z M9.42648314,123.443573 C9.60654887,122.992187 9.68488038,122.501039 9.65503242,122.010541 C9.68479554,121.523851 9.60421686,121.036663 9.42029019,120.591262 C9.27603267,120.31579 9.00581885,120.1455 8.71296032,120.1455 C8.42010178,120.1455 8.14988796,120.31579 8.00563044,120.591262 C7.82642248,121.038076 7.74815639,121.524568 7.77729926,122.010541 C7.74751415,122.501012 7.82576552,122.992127 8.00563044,123.443573 C8.15130305,123.71914 8.42242252,123.889207 8.71605679,123.889207 C9.00969106,123.889207 9.28081053,123.71914 9.42648314,123.443573 Z" id="形状" fill="#3F3D56"></path>
                <polygon id="路径" fill="#2F2E41" points="124 66.9096052 131.205563 39 172 39 172 39.3518222 131.4681 39.3518222 124.330262 67"></polygon>
                <path d="M176,43 C173.790861,43 172,41.209139 172,39 C172,36.790861 173.790861,35 176,35 C178.209139,35 180,36.790861 180,39 C179.997495,41.2081006 178.208101,42.9974951 176,43 Z M176,35.3809638 C174.536233,35.3809638 173.216596,36.262709 172.656434,37.6150522 C172.096272,38.9673953 172.4059,40.5240116 173.440938,41.5590524 C174.475976,42.5940932 176.032591,42.9037248 177.384936,42.3435663 C178.737281,41.7834079 179.619033,40.4637731 179.619033,39.0000062 C179.616765,37.0022083 177.997798,35.3832373 176,35.3809638 L176,35.3809638 Z" id="形状" fill="#2F2E41"></path>
                <circle id="椭圆形" fill="#6C63FF" cx="176" cy="39" r="2"></circle>
                <polygon id="路径" fill="#2F2E41" points="70.6697381 93 71 93.0903957 63.7944373 121 22 121 22 120.648461 63.5319 120.648461"></polygon>
                <path d="M18,117 C20.209139,117 22,118.790861 22,121 C22,123.209139 20.209139,125 18,125 C15.790861,125 14,123.209139 14,121 C14.0025066,118.7919 15.7919001,117.002507 18,117 Z M18,124.619036 C19.9987419,124.619036 21.6190424,122.998736 21.6190424,120.999994 C21.6190424,119.001252 19.9987419,117.380951 18,117.380951 C16.0012581,117.380951 14.3809576,119.001252 14.3809576,120.999994 C14.3832243,122.997796 16.0021977,124.61677 18,124.619036 Z" id="形状" fill="#2F2E41"></path>
                <circle id="椭圆形" fill="#6C63FF" cx="18" cy="121" r="2"></circle>
            </g>
        </g>
    </g>
</svg>