<?xml version="1.0" encoding="UTF-8"?>
<svg width="233px" height="155px" viewBox="0 0 233 155" version="1.1" xmlns="http://www.w3.org/2000/svg" xmlns:xlink="http://www.w3.org/1999/xlink">
    <!-- Generator: Sketch 55.2 (78181) - https://sketchapp.com -->
    <title>编组 4</title>
    <desc>Created with Sketch.</desc>
    <g id="页面1" stroke="none" stroke-width="1" fill="none" fill-rule="evenodd">
        <g id="编组-4" fill-rule="nonzero">
            <path d="M143.497019,21.2275203 C133.499289,28.7115576 120.531422,28.2284928 109.167516,24.3339274 C97.8036098,20.4393619 87.3648989,13.5054174 76.2928183,8.57769425 C67.064515,4.46221142 57.3415478,1.75233014 47.4085658,0.527384735 C33.2971753,-1.19916744 17.5385912,0.904129051 7.7073099,13.0084848 C-3.24155546,26.4811388 -2.40066531,50.7869255 9.43664697,63.1640163 C15.461225,69.4554153 23.3491637,72.5433319 30.227602,77.4548759 C37.1060402,82.3664199 43.4786473,90.5184272 42.8928344,99.994818 C42.3502548,108.777814 36.0446595,115.508363 29.5185738,119.735758 C24.4753945,123.001646 18.2649127,126.568004 17.6574831,133.333223 C17.0695085,139.878867 22.2921065,145.007674 27.2790822,147.924553 C43.5478208,157.442548 63.5951608,157.350095 79.8076959,147.693422 C85.5880051,144.238006 90.8970699,139.652358 96.960558,136.975855 C112.881267,129.921722 130.425392,137.024393 147.284267,139.619999 C161.609278,141.814293 176.208436,140.678247 190.085359,136.289395 C198.433734,133.652184 206.814534,129.621251 212.679148,122.111789 C216.909539,116.696379 219.544617,109.845642 222.017569,103.075801 C224.654808,95.8598758 227.190448,88.5923315 229.62449,81.273168 C231.083618,76.8816698 232.52113,72.4023417 232.899422,67.7011273 C233.58251,59.1839322 230.703164,50.7638123 226.781892,43.5756232 C217.471574,26.4950067 201.79081,14.4946602 184.80872,11.4460359 C173.487326,9.41361978 159.716759,12.6741145 143.497019,21.2275203 Z" id="路径" fill="#6C63FF" opacity="0.1"></path>
            <g id="编组" opacity="0.1" transform="translate(120.000000, 31.000000)" fill="#000000">
                <path d="M0.84321491,0.273566894 L0,49.5114739 C0,49.5114739 30.5239371,49.5114739 56.495399,58 L57,8.25857408 C57,8.25857408 15.3460687,-1.76501614 0.84321491,0.273566894 Z" id="路径"></path>
            </g>
            <path d="M119.843215,29.2735669 L119,78.5114739 C119,78.5114739 149.523937,78.5114739 175.495399,87 L176,37.2585741 C176,37.2585741 134.346069,27.2349839 119.843215,29.2735669 Z" id="路径" fill="#F7F7FD"></path>
            <g id="编组" opacity="0.1" transform="translate(48.000000, 32.000000)" fill="#000000">
                <path d="M56.1567851,0.271041223 L57,49.5111025 C57,49.5111025 26.4760629,49.5111025 0.506814211,58 L0,8.25639777 C0,8.25639777 41.6539313,-1.75649071 56.1567851,0.271041223 Z" id="路径"></path>
            </g>
            <path d="M105.156785,30.2710412 L106,79.5111025 C106,79.5111025 75.4760629,79.5111025 49.5068142,88 L49,38.2563978 C49,38.2563978 90.6539313,28.2435093 105.156785,30.2710412 Z" id="路径" fill="#F7F7FD"></path>
            <path d="M91.5399262,35.149599 L92,62.3166569 C92,62.3166569 75.3924564,62.3166569 61.2760443,67 L61,39.5532711 C61,39.5532711 83.6535872,34.030915 91.5399262,35.149599 Z" id="路径" fill="#DFE3EF"></path>
            <g id="编组" transform="translate(66.000000, 40.000000)">
                <rect id="矩形" fill="#FFFFFF" x="0" y="20" width="1.5" height="5"></rect>
                <rect id="矩形" fill="#FFFFFF" x="3" y="12" width="1.5" height="12"></rect>
                <rect id="矩形" fill="#DFE3EF" x="6" y="3" width="1.5" height="19"></rect>
                <rect id="矩形" fill="#FFFFFF" x="9" y="0" width="1.5" height="23"></rect>
                <rect id="矩形" fill="#536DFE" x="6" y="0" width="1.5" height="23"></rect>
                <rect id="矩形" fill="#536DFE" x="13" y="10" width="1.5" height="12"></rect>
                <rect id="矩形" fill="#FFFFFF" x="16" y="6" width="1.5" height="16"></rect>
                <rect id="矩形" fill="#FFFFFF" x="19" y="1" width="1.5" height="21"></rect>
            </g>
            <g id="编组" opacity="0.1" transform="translate(195.000000, 49.000000)" fill="#000000">
                <path d="M0,0 L0,48.3856762 C0,48.3856762 10.0453223,47.2041886 31.1293378,73 L33,24.6143238 C33,24.6143238 11.0565514,1.17927502 0,0 Z" id="路径"></path>
            </g>
            <path d="M194,48 L194,96.3856762 C194,96.3856762 204.045322,95.2041886 225.129338,121 L227,72.6143238 C227,72.6143238 205.056551,49.179275 194,48 Z" id="路径" fill="#F7F7FD"></path>
            <g id="编组" opacity="0.1" transform="translate(0.000000, 50.000000)" fill="#000000">
                <path d="M33,0 L33,48.3856762 C33,48.3856762 22.9629279,47.2041886 1.88195102,73 L0,24.6143238 C0,24.6143238 21.9427006,1.17927502 33,0 Z" id="路径"></path>
            </g>
            <path d="M35,48 L35,96.3856762 C35,96.3856762 24.9629279,95.2041886 3.88195102,121 L2,72.6143238 C2,72.6143238 23.9427006,49.179275 35,48 Z" id="路径" fill="#F7F7FD"></path>
            <g id="编组" transform="translate(128.000000, 39.000000)" fill="#37329A">
                <polygon id="路径" points="0 0 21 3.8578496 21 7 0 2.85817942"></polygon>
            </g>
            <polygon id="路径" fill="#FFFFFF" points="88 69 66 72.8578496 66 76 88 71.8581794"></polygon>
            <polygon id="路径" fill="#DAD6FF" points="129 45 167 52.9371931 167 56 129 47.7860065"></polygon>
            <polygon id="路径" fill="#DAD6FF" points="129 51 167 58.9349427 167 62 129 53.7837561"></polygon>
            <g id="编组" transform="translate(202.000000, 63.000000)" fill="#6C63FF">
                <polygon id="路径" points="0 0 0 2.5877424 8.59634941 9 9 6.78070385"></polygon>
            </g>
            <polygon id="路径" fill="#DAD6FF" points="202 89 202 91.5877424 210.596349 98 211 95.7807039"></polygon>
            <polygon id="路径" fill="#FFFFFF" points="203.134007 68 203 70.4895793 219 84 218.736606 81.156246"></polygon>
            <polygon id="路径" fill="#FFFFFF" points="203 73 203 75.4987794 219 90 219 86.7498394"></polygon>
            <g id="编组" transform="translate(10.000000, 64.000000)" fill="#6C63FF">
                <polygon id="路径" points="15.8682842 0 16 2.64517799 0 17 0.263431542 13.9785113"></polygon>
            </g>
            <g id="编组" transform="translate(10.000000, 69.000000)" fill="#6C63FF">
                <polygon id="路径" points="16 0 16 2.49877939 0 17 0 13.7498394"></polygon>
            </g>
            <polygon id="路径" fill="#37329A" points="26 85 26 87.4987794 10 102 10 98.7498394"></polygon>
        </g>
    </g>
</svg>