<?xml version="1.0" encoding="UTF-8"?>
<svg width="235px" height="155px" viewBox="0 0 235 155" version="1.1" xmlns="http://www.w3.org/2000/svg" xmlns:xlink="http://www.w3.org/1999/xlink">
    <!-- Generator: Sketch 55.2 (78181) - https://sketchapp.com -->
    <title>编组 27</title>
    <desc>Created with Sketch.</desc>
    <defs>
        <linearGradient x1="49.7905312%" y1="100.035378%" x2="49.7905312%" y2="0%" id="linearGradient-1">
            <stop stop-color="#808080" stop-opacity="0.25" offset="0%"></stop>
            <stop stop-color="#808080" stop-opacity="0.12" offset="54%"></stop>
            <stop stop-color="#808080" stop-opacity="0.1" offset="100%"></stop>
        </linearGradient>
    </defs>
    <g id="页面1" stroke="none" stroke-width="1" fill="none" fill-rule="evenodd">
        <g id="编组-27">
            <path d="M134.799058,25.5551066 C119.925418,25.0412477 105.759608,20.2467603 92.2326844,15.0026463 C78.7057609,9.75853234 65.3075339,3.94091509 50.7901069,1.17204126 C41.4527147,-0.617288968 30.7732017,-0.869630411 23.2513498,4.12902416 C16.0144687,8.93727565 13.6703535,17.2461911 12.4132643,24.9403111 C11.4664256,30.7349882 10.9102728,36.8347691 13.5025884,42.2601101 C15.3043397,46.0268797 18.4987712,49.1926178 20.7095935,52.7988064 C28.4015087,65.3539401 22.9640808,80.8339406 14.6309811,93.0908527 C10.7241225,98.8396495 6.18527199,104.331517 3.16779823,110.445062 C0.15032447,116.558607 -1.24465388,123.578287 1.39592293,129.822591 C4.01122006,136.016426 10.2461068,140.659509 17.000376,143.928477 C30.7180461,150.569645 46.8763538,152.469088 62.6439756,153.547274 C97.5368195,155.92846 132.613516,154.898448 167.598286,153.863848 C180.546075,153.483042 193.54902,153.095354 206.285379,151.097268 C213.359091,149.986966 220.66032,148.225164 225.79669,143.972064 C232.31425,138.574251 233.929851,129.434902 229.561064,122.66527 C222.234555,111.312199 201.983238,108.492857 196.856061,96.3093531 C194.038526,89.6016587 196.9319,82.132352 201.029505,75.9132825 C209.817639,62.5690082 224.546496,50.8626593 225.320973,35.6120601 C225.854144,25.1375963 218.773537,14.6470743 207.825141,9.68971195 C196.350467,4.49377225 180.435763,5.14756598 171.973967,13.7455271 C163.25248,22.6027118 147.928401,26.0116152 134.799058,25.5551066 Z" id="路径" fill="#F0EFFF" fill-rule="nonzero"></path>
            <rect id="矩形" fill="#E8E9ED" fill-rule="nonzero" x="3.98297872" y="30" width="60.7404255" height="59"></rect>
            <g id="编组" transform="translate(10.953191, 53.000000)" fill-rule="nonzero">
                <rect id="矩形" fill="#DFE3EF" x="0" y="0" width="44.8085106" height="33"></rect>
                <rect id="矩形" fill="#FFFFFF" x="4.14893617" y="25.3846154" width="1.65957447" height="5.92307692"></rect>
                <rect id="矩形" fill="#FFFFFF" x="7.46808511" y="18.6153846" width="1.65957447" height="12.6923077"></rect>
                <rect id="矩形" fill="#DFE3EF" x="9.95744681" y="11" width="1.65957447" height="20.3076923"></rect>
                <rect id="矩形" fill="#FFFFFF" x="13.2765957" y="5.92307692" width="1.65957447" height="25.3846154"></rect>
                <rect id="矩形" fill="#536DFE" x="9.95744681" y="5.92307692" width="1.65957447" height="25.3846154"></rect>
                <rect id="矩形" fill="#536DFE" x="17.4255319" y="17.7692308" width="1.65957447" height="13.5384615"></rect>
                <rect id="矩形" fill="#FFFFFF" x="21.5744681" y="12.6923077" width="1.65957447" height="18.6153846"></rect>
                <rect id="矩形" fill="#FFFFFF" x="24.893617" y="7.61538462" width="1.65957447" height="23.6923077"></rect>
                <rect id="矩形" fill="#536DFE" opacity="0.2" x="29.0425532" y="21.1538462" width="1.65957447" height="10.1538462"></rect>
                <rect id="矩形" fill="#536DFE" opacity="0.2" x="31.5319149" y="16.0769231" width="1.65957447" height="15.2307692"></rect>
                <rect id="矩形" fill="#536DFE" opacity="0.2" x="34.8510638" y="11" width="1.65957447" height="20.3076923"></rect>
                <rect id="矩形" fill="#536DFE" opacity="0.2" x="39" y="11" width="1.65957447" height="20.3076923"></rect>
            </g>
            <rect id="矩形" fill="#E8E9ED" fill-rule="nonzero" x="166.289362" y="30" width="60.7404255" height="59"></rect>
            <g id="编组-9" transform="translate(188.195745, 52.000000)" fill-rule="nonzero">
                <rect id="矩形" fill="#A6A1F4" x="3.31914894" y="0" width="3.31914894" height="3.33333333"></rect>
                <rect id="矩形" fill="#4A61E4" x="13.2765957" y="0" width="3.31914894" height="3.33333333"></rect>
                <rect id="矩形" fill="#FFFFFF" x="23.2340426" y="0" width="3.31914894" height="3.33333333"></rect>
                <rect id="矩形" fill="#A6A1F4" x="0" y="8.33333333" width="29.8723404" height="5"></rect>
                <rect id="矩形" fill="#4A61E4" x="0" y="17.5" width="29.8723404" height="5"></rect>
                <rect id="矩形" fill="#FFFFFF" x="0" y="25" width="29.8723404" height="5"></rect>
                <rect id="矩形" fill="#000000" opacity="0.15" x="0" y="8.33333333" width="13.2765957" height="5"></rect>
                <rect id="矩形" fill="#000000" opacity="0.15" x="0" y="17.5" width="4.14893617" height="5"></rect>
                <rect id="矩形" fill="#4A61E4" opacity="0.125397945" x="0" y="25" width="19.9148936" height="5"></rect>
            </g>
            <rect id="矩形" stroke="#3F3D56" fill-rule="nonzero" x="173.259574" y="34" width="60.7404255" height="59"></rect>
            <rect id="矩形" stroke="#000000" fill-rule="nonzero" x="11.9489362" y="33" width="60.7404255" height="59"></rect>
            <rect id="矩形" fill="#FAFAFA" fill-rule="nonzero" x="37.8382979" y="47" width="63.7276596" height="64"></rect>
            <path d="M83.6629316,93 C88.5040657,88.4765884 89.9522813,81.6737468 87.3322781,75.7636269 C84.712275,69.8535069 78.5400174,66 71.693617,66 L71.693617,81.8162365 L83.6629316,93 Z" id="路径" fill="#37329A" fill-rule="nonzero"></path>
            <path d="M69.7021277,66 C62.4181554,66.0008699 56.0622954,70.9542508 54.2645743,78.0311151 C52.4668531,85.1079793 55.6851059,92.5060244 62.0812898,96 L69.7021277,81.9715331 L69.7021277,66 Z" id="路径" fill="#4A61E4" fill-rule="nonzero"></path>
            <path d="M82.6468085,93.3134156 L71.3621429,82 L63.7276596,96.0531127 C69.9429428,99.4432938 77.6424939,98.3283157 82.6468085,93.3134156 L82.6468085,93.3134156 Z" id="路径" fill="#37329A" fill-rule="nonzero" opacity="0.512137277"></path>
            <rect id="矩形" fill="#6C63FF" fill-rule="nonzero" x="48.7914894" y="104" width="2.98723404" height="3"></rect>
            <rect id="矩形" fill="#37329A" fill-rule="nonzero" x="53.7702128" y="104" width="2.98723404" height="3"></rect>
            <rect id="矩形" fill="#575A89" fill-rule="nonzero" x="60.7404255" y="104" width="2.98723404" height="3"></rect>
            <rect id="矩形" fill="#FAFAFA" fill-rule="nonzero" x="131.438298" y="47" width="63.7276596" height="64"></rect>
            <g id="编组-20" transform="translate(140.400000, 70.000000)" fill-rule="nonzero">
                <rect id="矩形" fill="#DCE0ED" opacity="0.5" x="0" y="0" width="52.7744681" height="1"></rect>
                <rect id="矩形" fill="#DCE0ED" opacity="0.5" x="0" y="5.11111111" width="52.7744681" height="1"></rect>
                <rect id="矩形" fill="#DCE0ED" opacity="0.5" x="0" y="12.7777778" width="52.7744681" height="1"></rect>
                <rect id="矩形" fill="#DCE0ED" opacity="0.5" x="0" y="18.7407407" width="52.7744681" height="1"></rect>
                <path d="M0,22.9684694 L0,11.8362944 L4.84091549,15.1382827 L9.84957029,16.0784715 L14.2445447,14.2448202 C17.0338961,11.1811428 18.8012956,9.28330187 19.5467433,8.55129748 C20.6649148,7.4532909 21.581615,7.50203032 22.2142074,7.1386544 C22.8467997,6.77527849 23.3212926,6.70310338 24.1636654,6.61900187 C25.0060383,6.53490036 24.1231001,5.89401335 26.0292538,6.75776467 C27.9354075,7.621516 26.8325014,7.0478085 29.0976558,8.85478211 C31.3628101,10.6617557 32.3319504,11.2765435 33.267614,11.8122233 C34.2032777,12.3479031 34.9583249,12.5722569 36.5395533,12.3955935 C38.1207817,12.21893 37.9316489,12.1718738 39.1354214,11.1566399 C40.3391938,10.1414059 43.7685273,6.43409694 44.6350205,5.63916658 C45.5015137,4.84423622 46.2368121,4.41314482 47.4436311,4.25437046 C48.2481771,4.14852089 49.2276792,4.35808104 50.3821374,4.88305091 C51.9770245,5.90347668 52.7744681,6.78104914 52.7744681,7.51576828 C52.7744681,8.25048742 52.7744681,13.4013878 52.7744681,22.9684694 L0,22.9684694 Z" id="路径" fill="#6C63FF" opacity="0.5"></path>
                <path d="M9.18678394,17.8882027 C4.44017676,17.8882027 0.0551574753,13.5294999 0,13.4742877 L0.130743645,13.1813558 C0.198158337,13.2488375 6.94984189,19.9555959 12.6851979,16.5953151 C14.7760748,15.3683756 16.266348,13.4666193 17.706571,11.6231426 C19.2101229,9.69991485 20.6309386,7.88251063 22.5665574,7.09420197 C24.788178,6.19086772 27.2151069,7.0083162 29.0587966,9.28428908 C30.6348704,11.2289883 33.7747607,14.3454147 37.0903378,13.4252101 C38.7818337,12.9482373 40.2067352,11.0940249 41.7153943,9.13092163 C44.6029903,5.36114985 47.5978369,1.47021778 52.7744681,7.05279276 L52.635553,7.34112356 C47.612137,1.9195844 44.6918551,5.71849599 41.8686095,9.39317996 C40.3364574,11.3869567 38.8870415,13.2718426 37.1342595,13.7656858 C33.7226675,14.7272997 30.5174054,11.5418579 28.9096671,9.55728313 C27.1241992,7.35492663 24.7759208,6.56201694 22.628865,7.43621137 C20.7432965,8.20304859 19.341888,9.99591402 17.8587648,11.8930693 C16.4032203,13.7549501 14.8966041,15.6797115 12.7709984,16.9250552 C11.6267846,17.5792705 10.4110916,17.9059506 9.18678394,17.8882027 L9.18678394,17.8882027 Z" id="路径" fill="#6C63FF"></path>
                <ellipse id="椭圆形" fill="#6C63FF" cx="24.7380319" cy="6.81481481" rx="1.64920213" ry="1.7037037"></ellipse>
            </g>
            <rect id="矩形" stroke="#3F3D56" fill-rule="nonzero" x="139.404255" y="53" width="62.7319149" height="63"></rect>
            <rect id="矩形" stroke="#3F3D56" fill-rule="nonzero" x="43.812766" y="53" width="62.7319149" height="63"></rect>
            <rect id="矩形" fill="#000000" fill-rule="nonzero" opacity="0.1" x="16.9276596" y="41" width="22.9021277" height="1"></rect>
            <rect id="矩形" fill="#000000" fill-rule="nonzero" opacity="0.1" x="180.229787" y="41" width="22.9021277" height="1"></rect>
            <rect id="矩形" fill="#000000" fill-rule="nonzero" opacity="0.1" x="45.8042553" y="58" width="22.9021277" height="1"></rect>
            <rect id="矩形" fill="#000000" fill-rule="nonzero" opacity="0.1" x="86.6297872" y="82" width="12.9446809" height="1"></rect>
            <rect id="矩形" fill="#000000" fill-rule="nonzero" opacity="0.1" x="45.8042553" y="65" width="22.9021277" height="1"></rect>
            <rect id="矩形" fill="#000000" fill-rule="nonzero" opacity="0.1" x="142.391489" y="58" width="22.9021277" height="1"></rect>
            <rect id="矩形" fill="#000000" fill-rule="nonzero" opacity="0.1" x="142.391489" y="65" width="22.9021277" height="1"></rect>
            <rect id="矩形" fill="#DFE3EF" fill-rule="nonzero" x="72.6893617" y="64" width="82.6468085" height="83"></rect>
            <rect id="矩形" fill="#FFFFFF" fill-rule="nonzero" x="78.6638298" y="61" width="82.6468085" height="83"></rect>
            <path d="M87.6255319,78 L105.123855,78" id="直线" stroke="#D1D1D6" stroke-linecap="square"></path>
            <path d="M87.6255319,80 L96.9758173,80" id="直线" stroke="#FF2D55" stroke-linecap="square"></path>
            <rect id="矩形" fill="#6C63FF" fill-rule="nonzero" x="93.6" y="129" width="2.98723404" height="3"></rect>
            <rect id="矩形" fill="#A6A1F4" fill-rule="nonzero" x="99.5744681" y="129" width="2.98723404" height="3"></rect>
            <rect id="矩形" fill="#37329A" fill-rule="nonzero" x="104.553191" y="129" width="2.98723404" height="3"></rect>
            <rect id="矩形" fill="#3F3D56" fill-rule="nonzero" x="130.442553" y="132" width="12.9446809" height="2"></rect>
            <rect id="矩形" fill="#3F3D56" fill-rule="nonzero" x="130.442553" y="134" width="12.9446809" height="2"></rect>
            <path d="M122.476596,80 L122.476596,85.4185244 C129.121632,85.418521 135.112357,89.3790639 137.655303,95.4533572 C140.198249,101.52765 138.792626,108.519465 134.093875,113.168527 L137.966295,117 C144.231293,110.801251 146.105456,101.478835 142.714863,93.3797794 C139.32427,85.2807237 131.336641,80 122.476596,80 L122.476596,80 Z" id="路径" fill="#37329A" fill-rule="nonzero"></path>
            <path d="M137.412766,118.140147 L133.388383,114 C127.351534,120.211789 117.781824,120.879299 110.985182,115.562675 L107.540426,120.225628 C116.604014,127.312449 129.362932,126.42171 137.412766,118.140147 Z" id="路径" fill="#A6A1F4" fill-rule="nonzero"></path>
            <path d="M104.05635,101.156327 C104.05635,92.3930897 111.411755,85.2890819 120.485106,85.2890819 L120.485106,80 C111.082192,80 102.72817,85.7958062 99.7263322,94.4021244 C96.7244942,103.008443 99.7445856,112.505014 107.230909,118 L110.545482,113.787787 C106.454247,110.790659 104.052641,106.115798 104.05635,101.156327 L104.05635,101.156327 Z" id="路径" fill="#6C63FF" fill-rule="nonzero"></path>
            <rect id="矩形" fill="#4A61E4" fill-rule="nonzero" x="87.6255319" y="70" width="63.7276596" height="1"></rect>
            <path d="M100.570213,117 C100.570213,117 101.926543,117.344061 101.473253,117.879099 C101.019962,118.414136 100.570213,117 100.570213,117 Z" id="路径" fill="url(#linearGradient-1)" fill-rule="nonzero"></path>
        </g>
    </g>
</svg>