<?xml version="1.0" encoding="UTF-8"?>
<svg width="234px" height="156px" viewBox="0 0 234 156" version="1.1" xmlns="http://www.w3.org/2000/svg" xmlns:xlink="http://www.w3.org/1999/xlink">
    <!-- Generator: Sketch 55.2 (78181) - https://sketchapp.com -->
    <title>编组 14</title>
    <desc>Created with Sketch.</desc>
    <g id="页面1" stroke="none" stroke-width="1" fill="none" fill-rule="evenodd">
        <g id="编组-14">
            <g id="编组-13">
                <g id="编组-6">
                    <path d="M72.272368,8.12377972 C80.2143731,0.996273418 92.6741667,-0.457149518 104.018121,0.111256021 C139.645807,1.89375585 171.809691,19.2251388 199.619079,38.8276509 C209.691323,45.9227481 219.605221,53.5712928 226.141912,63.3438793 C239.447863,83.2380731 235.501602,110.798263 216.987576,127.187289 C210.693351,132.761652 203.060615,137.037159 195.215101,140.826529 C181.283191,147.557647 166.252761,152.972458 150.433079,154.513136 C139.158401,155.610059 127.74517,154.717563 116.537294,153.186857 C85.2195682,148.906364 54.4783181,139.44291 28.7051509,123.253324 C17.4032571,116.150748 6.75206337,107.323011 2.09572272,95.8302502 C-2.56061794,84.3374891 0.457838806,69.8032598 11.9972505,62.9898723 C16.769876,60.1777607 22.4752541,58.9063272 28.0618732,57.71467 C36.2834566,55.9695653 44.6386439,54.2244606 52.0610785,50.6594609 C59.7309276,46.9747969 68.8011428,39.8447976 67.2844919,31.6851865 C65.6540305,22.9347328 64.3551044,15.243807 72.272368,8.12377972 Z" id="路径" fill="#6C63FF" fill-rule="nonzero" opacity="0.1"></path>
                    <g id="编组-2" transform="translate(71.000000, 4.000000)">
                        <g id="编组-5" transform="translate(0.131915, 0.000000)">
                            <g id="编组-11" transform="translate(0.868085, 0.000000)">
                                <rect id="矩形" stroke="#EFEFF4" fill="#FFFFFF" fill-rule="nonzero" x="0.868085106" y="5" width="87" height="54"></rect>
                                <rect id="矩形" stroke="#3F3D56" x="6.86808511" y="0" width="87" height="54"></rect>
                                <path d="M64.302723,38 C69.7365249,32.8064534 71.3620358,24.9957834 68.4212832,18.2100901 C65.4805305,11.4243968 58.5526446,7 50.8680851,7 L50.8680851,25.1593827 L64.302723,38 Z" id="路径" fill="#D3D9F9" fill-rule="nonzero"></path>
                                <path d="M48.8680851,7 C40.1814034,7.00101489 32.6015651,12.7799593 30.4576482,21.0363009 C28.3137312,29.2926425 32.1517384,37.9236951 39.779666,42 L48.8680851,25.6334552 L48.8680851,7 Z" id="路径" fill="#4A61E4" fill-rule="nonzero"></path>
                                <path d="M63.8680851,39.4346811 L50.1493228,26 L40.8680851,42.6880713 C48.4240018,46.7139114 57.7843423,45.3898749 63.8680851,39.4346811 L63.8680851,39.4346811 Z" id="路径" fill="#37329A" fill-rule="nonzero" opacity="0.512137277"></path>
                                <rect id="矩形" fill="#6C63FF" fill-rule="nonzero" x="10.8680851" y="44" width="3" height="2"></rect>
                                <rect id="矩形" fill="#D3D9F9" fill-rule="nonzero" x="15.8680851" y="44" width="3" height="2"></rect>
                                <rect id="矩形" fill="#575A89" fill-rule="nonzero" x="20.8680851" y="44" width="3" height="2"></rect>
                                <rect id="矩形" fill="#656691" fill-rule="nonzero" x="70.8680851" y="42" width="15" height="1"></rect>
                                <rect id="矩形" fill="#656691" fill-rule="nonzero" x="70.8680851" y="45" width="15" height="1"></rect>
                                <rect id="矩形" fill="#656691" fill-rule="nonzero" x="70.8680851" y="47" width="15" height="1"></rect>
                            </g>
                            <rect id="矩形" stroke="#EFEFF4" fill="#FFFFFF" fill-rule="nonzero" x="13.2362221" y="89.2673267" width="57.1460301" height="61.7326733"></rect>
                            <rect id="矩形" stroke="#3F3D56" x="17.6320706" y="83.5247525" width="57.1460301" height="61.7326733"></rect>
                            <rect id="矩形" fill="#6C63FF" fill-rule="nonzero" x="20.5626362" y="138.079208" width="2.93056565" height="2.87128713"></rect>
                            <rect id="矩形" fill="#A6A1F4" fill-rule="nonzero" x="26.4237675" y="138.079208" width="2.93056565" height="2.87128713"></rect>
                            <rect id="矩形" fill="#37329A" fill-rule="nonzero" x="30.819616" y="138.079208" width="2.93056565" height="2.87128713"></rect>
                            <rect id="矩形" fill="#3F3D56" fill-rule="nonzero" x="55.729424" y="140.950495" width="11.7222626" height="1.43564356"></rect>
                            <rect id="矩形" fill="#3F3D56" fill-rule="nonzero" x="55.729424" y="140.950495" width="11.7222626" height="1.43564356"></rect>
                            <rect id="矩形" fill="#3F3D56" fill-rule="nonzero" x="55.729424" y="142.386139" width="11.7222626" height="1.43564356"></rect>
                            <path d="M46.937727,93.5742574 L46.937727,98.6201405 C53.1603885,98.6201373 58.7703282,102.308307 61.1516384,107.96486 C63.5329486,113.621414 62.2166707,120.132389 57.8165834,124.461727 L61.4428626,128.029703 C67.3096427,122.257253 69.0646788,113.575956 65.8896004,106.033886 C62.714522,98.4918166 55.2346065,93.5742574 46.937727,93.5742574 L46.937727,93.5742574 Z" id="路径" fill="#37329A" fill-rule="nonzero"></path>
                            <path d="M61.495407,127.381679 L57.7447691,123.599276 C52.1185571,129.274313 43.1997945,129.884144 36.8654713,125.026922 L33.6550334,129.286956 C42.1021016,135.761415 53.9931359,134.947643 61.495407,127.381679 Z" id="路径" fill="#A6A1F4" fill-rule="nonzero"></path>
                            <path d="M31.5532228,113.556458 C31.5532228,105.27956 38.4411,98.5698076 46.937727,98.5698076 L46.937727,93.5742574 C38.1324852,93.5742574 30.3094653,99.04841 27.4984314,107.177098 C24.6873976,115.305785 27.5155247,124.275319 34.5259986,129.465347 L37.6298899,125.486902 C33.7987034,122.656107 31.5497497,118.24069 31.5532228,113.556458 L31.5532228,113.556458 Z" id="路径" fill="#6C63FF" fill-rule="nonzero"></path>
                            <rect id="矩形" stroke="#EFEFF4" fill="#FFFFFF" fill-rule="nonzero" x="98.2226258" y="59.1188119" width="57.1460301" height="61.7326733"></rect>
                            <g id="编组-9" transform="translate(112.875454, 73.475248)" fill-rule="nonzero">
                                <rect id="矩形" fill="#A6A1F4" x="4.18652235" y="0" width="4.18652235" height="4.10183876"></rect>
                                <rect id="矩形" fill="#4A61E4" x="15.0714805" y="0" width="4.18652235" height="4.10183876"></rect>
                                <rect id="矩形" fill="#E8EBFC" x="26.793743" y="0" width="4.18652235" height="4.10183876"></rect>
                                <rect id="矩形" fill="#A6A1F4" x="0" y="9.84441301" width="35.1667878" height="5.74257426"></rect>
                                <rect id="矩形" fill="#4A61E4" x="0" y="19.688826" width="35.1667878" height="5.74257426"></rect>
                                <rect id="矩形" fill="#E8EBFC" x="0" y="28.7128713" width="35.1667878" height="5.74257426"></rect>
                                <rect id="矩形" fill="#000000" opacity="0.15" x="0" y="9.84441301" width="15.0714805" height="5.74257426"></rect>
                                <rect id="矩形" fill="#000000" opacity="0.15" x="0" y="19.688826" width="5.02382682" height="5.74257426"></rect>
                                <rect id="矩形" fill="#4A61E4" opacity="0.125397945" x="0" y="28.7128713" width="23.4445252" height="5.74257426"></rect>
                            </g>
                            <rect id="矩形" stroke="#3F3D56" x="104.083757" y="53.3762376" width="57.1460301" height="61.7326733"></rect>
                            <rect id="矩形" fill="#656691" fill-rule="nonzero" x="112.875454" y="63.4257426" width="35.1667878" height="1.43564356"></rect>
                            <rect id="矩形" fill="#656691" fill-rule="nonzero" x="112.875454" y="66.2970297" width="35.1667878" height="1.43564356"></rect>
                            <rect id="矩形" fill="#656691" fill-rule="nonzero" x="112.875454" y="67.7326733" width="35.1667878" height="1.43564356"></rect>
                        </g>
                    </g>
                </g>
                <path d="M64,36.7857194 L64,108.214283 C64,108.687884 63.8146815,109.142089 63.4848125,109.476976 C63.1549434,109.811862 62.707545,110 62.2410398,110 L11.7589602,110 C11.292455,110 10.8450566,109.811862 10.5151875,109.476976 C10.1853185,109.142089 10,108.687884 10,108.214283 L10,36.7857173 C10,35.7994929 10.7875133,35 11.7589602,35 L62.2410398,35 C63.2124867,35 64,35.7994949 64,36.7857194 Z" id="路径" fill="#E6E6E6" fill-rule="nonzero"></path>
                <polygon id="路径" fill="#FFFFFF" fill-rule="nonzero" points="11 109 63 109 63 36 11 36"></polygon>
                <path d="M53.6049397,50 C53.7097166,50 53.8102021,50.0263393 53.8842903,50.0732235 C53.9583786,50.1201077 54,50.1836963 54,50.2500004 L54,50.7500011 C54,50.8880717 53.8231255,51 53.6049397,51 L22.3950603,51 C22.2902836,51 22.1897981,50.9736614 22.1157098,50.9267774 C22.0416215,50.8798935 22,50.816305 22,50.7500011 L22,50.2500004 C22,50.1836962 22.0416206,50.1201074 22.115709,50.0732231 C22.1897974,50.0263388 22.2902832,50 22.3950603,50 L53.6049581,50" id="路径" fill="#E6E6E6" fill-rule="nonzero"></path>
                <path d="M53.6049397,53 C53.8231259,53 54,53.1119295 54,53.2500004 L54,53.7500011 C54,53.8880717 53.8231255,54 53.6049397,54 L22.3950603,54 C22.2902836,54 22.1897981,53.9736614 22.1157098,53.9267774 C22.0416215,53.8798935 22,53.816305 22,53.7500011 L22,53.2500004 C22,53.1836963 22.0416214,53.1201077 22.1157097,53.0732235 C22.1897979,53.0263393 22.2902834,53 22.3950603,53 L53.6049581,53" id="路径" fill="#E6E6E6" fill-rule="nonzero"></path>
                <path d="M53.6049397,57 C53.823125,57 54,57.1119288 54,57.2499993 L54,57.7500007 C54,57.8880712 53.823125,58 53.6049397,58 L22.3950603,58 C22.1768745,58 22,57.8880715 22,57.7500007 L22,57.2499993 C22,57.1119285 22.1768745,57 22.3950603,57 L53.6049581,57" id="路径" fill="#6C63FF" fill-rule="nonzero"></path>
                <path d="M53.6049397,61 C53.8231255,61 54,61.1119285 54,61.2499993 L54,61.7500007 C54,61.8880715 53.8231255,62 53.6049397,62 L22.3950603,62 C22.2902836,62 22.1897981,61.9736614 22.1157098,61.9267773 C22.0416215,61.8798933 22,61.8163048 22,61.7500007 L22,61.2499993 C22,61.1836952 22.0416215,61.1201067 22.1157098,61.0732227 C22.1897981,61.0263386 22.2902836,61 22.3950603,61 L53.6049581,61" id="路径" fill="#E6E6E6" fill-rule="nonzero"></path>
                <path d="M53.6049397,64 C53.8231255,64 54,64.1119283 54,64.2499989 L54,64.7499996 C54,64.8163037 53.9583786,64.8798923 53.8842903,64.9267765 C53.8102021,64.9736607 53.7097166,65 53.6049397,65 L22.3950603,65 C22.2902832,65 22.1897974,64.9736612 22.115709,64.9267769 C22.0416206,64.8798926 22,64.8163038 22,64.7499996 L22,64.2499989 C22,64.183695 22.0416215,64.1201065 22.1157098,64.0732226 C22.1897981,64.0263386 22.2902836,64 22.3950603,64 L53.6049581,64" id="路径" fill="#E6E6E6" fill-rule="nonzero"></path>
                <path d="M53.6049397,69 C53.823125,69 54,69.1119287 54,69.2499989 L54,69.7499996 C54,69.8880701 53.8231253,70 53.6049397,70 L22.3950603,70 C22.1768741,70 22,69.8880705 22,69.7499996 L22,69.2499989 C22,69.1119283 22.1768745,69 22.3950603,69 L53.6049581,69" id="路径" fill="#E6E6E6" fill-rule="nonzero"></path>
                <g id="编组-7" transform="translate(23.000000, 81.000000)" fill-rule="nonzero">
                    <circle id="椭圆形" fill="#E6E6E6" cx="1" cy="1" r="1"></circle>
                    <circle id="椭圆形" fill="#E6E6E6" cx="4" cy="1" r="1"></circle>
                    <circle id="椭圆形" fill="#E6E6E6" cx="7" cy="1" r="1"></circle>
                    <circle id="椭圆形" fill="#E6E6E6" cx="10" cy="1" r="1"></circle>
                    <circle id="椭圆形" fill="#E6E6E6" cx="13" cy="1" r="1"></circle>
                    <circle id="椭圆形" fill="#E6E6E6" cx="16" cy="1" r="1"></circle>
                    <circle id="椭圆形" fill="#E6E6E6" cx="19" cy="1" r="1"></circle>
                    <circle id="椭圆形" fill="#E6E6E6" cx="22" cy="1" r="1"></circle>
                    <circle id="椭圆形" fill="#E6E6E6" cx="25" cy="1" r="1"></circle>
                    <circle id="椭圆形" fill="#E6E6E6" cx="28" cy="1" r="1"></circle>
                    <circle id="椭圆形" fill="#E6E6E6" cx="1" cy="4" r="1"></circle>
                    <circle id="椭圆形" fill="#E6E6E6" cx="4" cy="4" r="1"></circle>
                    <circle id="椭圆形" fill="#E6E6E6" cx="7" cy="4" r="1"></circle>
                    <circle id="椭圆形" fill="#6C63FF" cx="10" cy="4" r="1"></circle>
                    <circle id="椭圆形" fill="#E6E6E6" cx="13" cy="4" r="1"></circle>
                    <circle id="椭圆形" fill="#37329A" cx="16" cy="4" r="1"></circle>
                    <circle id="椭圆形" fill="#E6E6E6" cx="19" cy="4" r="1"></circle>
                    <circle id="椭圆形" fill="#6C63FF" cx="22" cy="4" r="1"></circle>
                    <circle id="椭圆形" fill="#E6E6E6" cx="25" cy="4" r="1"></circle>
                    <circle id="椭圆形" fill="#E6E6E6" cx="28" cy="4" r="1"></circle>
                    <circle id="椭圆形" fill="#E6E6E6" cx="1" cy="7" r="1"></circle>
                    <circle id="椭圆形" fill="#37329A" cx="4" cy="7" r="1"></circle>
                    <circle id="椭圆形" fill="#E6E6E6" cx="7" cy="7" r="1"></circle>
                    <circle id="椭圆形" fill="#E6E6E6" cx="10" cy="7" r="1"></circle>
                    <circle id="椭圆形" fill="#37329A" cx="13" cy="7" r="1"></circle>
                    <circle id="椭圆形" fill="#E6E6E6" cx="16" cy="7" r="1"></circle>
                    <circle id="椭圆形" fill="#37329A" cx="19" cy="7" r="1"></circle>
                    <circle id="椭圆形" fill="#E6E6E6" cx="22" cy="7" r="1"></circle>
                    <circle id="椭圆形" fill="#6C63FF" cx="25" cy="7" r="1"></circle>
                    <circle id="椭圆形" fill="#E6E6E6" cx="28" cy="7" r="1"></circle>
                    <circle id="椭圆形" fill="#E6E6E6" cx="1" cy="10" r="1"></circle>
                    <circle id="椭圆形" fill="#E6E6E6" cx="4" cy="10" r="1"></circle>
                    <circle id="椭圆形" fill="#E6E6E6" cx="7" cy="10" r="1"></circle>
                    <circle id="椭圆形" fill="#E6E6E6" cx="10" cy="10" r="1"></circle>
                    <circle id="椭圆形" fill="#E6E6E6" cx="13" cy="10" r="1"></circle>
                    <circle id="椭圆形" fill="#E6E6E6" cx="16" cy="10" r="1"></circle>
                    <circle id="椭圆形" fill="#E6E6E6" cx="19" cy="10" r="1"></circle>
                    <circle id="椭圆形" fill="#E6E6E6" cx="22" cy="10" r="1"></circle>
                    <circle id="椭圆形" fill="#E6E6E6" cx="25" cy="10" r="1"></circle>
                    <circle id="椭圆形" fill="#E6E6E6" cx="28" cy="10" r="1"></circle>
                    <circle id="椭圆形" fill="#E6E6E6" cx="1" cy="13" r="1"></circle>
                    <circle id="椭圆形" fill="#6C63FF" cx="4" cy="13" r="1"></circle>
                    <circle id="椭圆形" fill="#E6E6E6" cx="7" cy="13" r="1"></circle>
                    <circle id="椭圆形" fill="#6C63FF" cx="10" cy="13" r="1"></circle>
                    <circle id="椭圆形" fill="#E6E6E6" cx="13" cy="13" r="1"></circle>
                    <circle id="椭圆形" fill="#6C63FF" cx="16" cy="13" r="1"></circle>
                    <circle id="椭圆形" fill="#E6E6E6" cx="19" cy="13" r="1"></circle>
                    <circle id="椭圆形" fill="#37329A" cx="22" cy="13" r="1"></circle>
                    <circle id="椭圆形" fill="#E6E6E6" cx="25" cy="13" r="1"></circle>
                    <circle id="椭圆形" fill="#E6E6E6" cx="28" cy="13" r="1"></circle>
                    <circle id="椭圆形" fill="#E6E6E6" cx="1" cy="16" r="1"></circle>
                    <circle id="椭圆形" fill="#E6E6E6" cx="4" cy="16" r="1"></circle>
                    <circle id="椭圆形" fill="#E6E6E6" cx="7" cy="16" r="1"></circle>
                    <circle id="椭圆形" fill="#E6E6E6" cx="10" cy="16" r="1"></circle>
                    <circle id="椭圆形" fill="#E6E6E6" cx="13" cy="16" r="1"></circle>
                    <circle id="椭圆形" fill="#E6E6E6" cx="16" cy="16" r="1"></circle>
                    <circle id="椭圆形" fill="#E6E6E6" cx="19" cy="16" r="1"></circle>
                    <circle id="椭圆形" fill="#E6E6E6" cx="22" cy="16" r="1"></circle>
                    <circle id="椭圆形" fill="#E6E6E6" cx="25" cy="16" r="1"></circle>
                    <circle id="椭圆形" fill="#E6E6E6" cx="28" cy="16" r="1"></circle>
                    <circle id="椭圆形" fill="#E6E6E6" cx="1" cy="19" r="1"></circle>
                    <circle id="椭圆形" fill="#E6E6E6" cx="4" cy="19" r="1"></circle>
                    <circle id="椭圆形" fill="#6C63FF" cx="7" cy="19" r="1"></circle>
                    <circle id="椭圆形" fill="#E6E6E6" cx="10" cy="19" r="1"></circle>
                    <circle id="椭圆形" fill="#E6E6E6" cx="13" cy="19" r="1"></circle>
                    <circle id="椭圆形" fill="#37329A" cx="16" cy="19" r="1"></circle>
                    <circle id="椭圆形" fill="#E6E6E6" cx="19" cy="19" r="1"></circle>
                    <circle id="椭圆形" fill="#6C63FF" cx="22" cy="19" r="1"></circle>
                    <circle id="椭圆形" fill="#E6E6E6" cx="25" cy="19" r="1"></circle>
                    <circle id="椭圆形" fill="#E6E6E6" cx="28" cy="19" r="1"></circle>
                    <circle id="椭圆形" fill="#E6E6E6" cx="1" cy="22" r="1"></circle>
                    <circle id="椭圆形" fill="#E6E6E6" cx="4" cy="22" r="1"></circle>
                    <circle id="椭圆形" fill="#E6E6E6" cx="7" cy="22" r="1"></circle>
                    <circle id="椭圆形" fill="#E6E6E6" cx="10" cy="22" r="1"></circle>
                    <circle id="椭圆形" fill="#37329A" cx="13" cy="22" r="1"></circle>
                    <circle id="椭圆形" fill="#E6E6E6" cx="16" cy="22" r="1"></circle>
                    <circle id="椭圆形" fill="#E6E6E6" cx="19" cy="22" r="1"></circle>
                    <circle id="椭圆形" fill="#E6E6E6" cx="22" cy="22" r="1"></circle>
                    <circle id="椭圆形" fill="#E6E6E6" cx="25" cy="22" r="1"></circle>
                    <circle id="椭圆形" fill="#E6E6E6" cx="28" cy="22" r="1"></circle>
                </g>
                <polygon id="路径" stroke="#3E3F54" stroke-width="0.5" fill="#3F3D56" fill-rule="nonzero" points="38 56.9096938 45.2055927 29 79 29 79 29.3518079 45.4680022 29.3518079 38.3301811 57"></polygon>
                <polygon id="路径" stroke="#3E3F54" stroke-width="0.5" fill="#3F3D56" fill-rule="nonzero" transform="translate(66.500000, 113.500000) scale(1, -1) translate(-66.500000, -113.500000) " points="45 122.909694 52.2055927 104 88 104 88 104.351808 52.4680022 104.351808 45.3301811 123"></polygon>
                <path d="M64,79.5 L175.215672,79.5" id="直线-3" stroke="#3F3D56" stroke-linecap="square"></path>
            </g>
        </g>
    </g>
</svg>