<?xml version="1.0" encoding="UTF-8"?>
<svg width="234px" height="155px" viewBox="0 0 234 155" version="1.1" xmlns="http://www.w3.org/2000/svg" xmlns:xlink="http://www.w3.org/1999/xlink">
    <!-- Generator: Sketch 55.2 (78181) - https://sketchapp.com -->
    <title>编组 10</title>
    <desc>Created with Sketch.</desc>
    <g id="页面1" stroke="none" stroke-width="1" fill="none" fill-rule="evenodd">
        <g id="编组-10" fill-rule="nonzero">
            <path d="M135.956132,25.5551066 C120.95482,25.0412477 106.667416,20.2467603 93.0243813,15.0026463 C79.3813468,9.75853234 65.8681136,3.94091509 51.2260734,1.17204126 C41.808532,-0.617288968 31.0373494,-0.869630411 23.4509322,4.12902416 C16.1519319,8.93727565 13.7876956,17.2461911 12.5198159,24.9403111 C11.5648499,30.7349882 11.0039232,36.8347691 13.6184904,42.2601101 C15.4357074,46.0268797 18.6575589,49.1926178 20.8873583,52.7988064 C28.6452985,65.3539401 23.1611973,80.8339406 14.7565689,93.0908527 C10.816175,98.8396495 6.23836445,104.331517 3.19498963,110.445062 C0.151614809,116.558607 -1.2553376,123.578287 1.4079051,129.822591 C4.04565114,136.016426 10.3340562,140.659509 17.1463019,143.928477 C30.9817203,150.569645 47.2787259,152.469088 63.1816921,153.547274 C98.3740454,155.92846 133.751829,154.898448 169.036898,153.863848 C182.095827,153.483042 195.210385,153.095354 208.056069,151.097268 C215.1905,149.986966 222.5544,148.225164 227.734859,143.972064 C234.308364,138.574251 235.937832,129.434902 231.531545,122.66527 C224.142147,111.312199 203.717,108.492857 198.545812,96.3093531 C195.704093,89.6016587 198.622302,82.132352 202.75508,75.9132825 C211.618648,62.5690082 226.473933,50.8626593 227.255059,35.6120601 C227.792806,25.1375963 220.651422,14.6470743 209.609047,9.68971195 C198.035879,4.49377225 181.984568,5.14756598 173.450139,13.7455271 C164.653789,22.6027118 149.198173,26.0116152 135.956132,25.5551066 Z" id="路径" fill="#F0EFFF"></path>
            <g id="编组-8" transform="translate(9.957447, 19.000000)">
                <rect id="矩形" fill="#E6E6E6" x="0.0866830822" y="0.114086341" width="203.009473" height="128.885914"></rect>
                <rect id="矩形" fill="#FFFFFF" x="5.89169115" y="16.2795941" width="191.399454" height="49.1323902"></rect>
                <rect id="矩形" fill="#E6E6E6" x="53.5005029" y="23.3764962" width="40.4766973" height="2.30331359"></rect>
                <rect id="矩形" fill="#6C63FF" x="53.5005029" y="31.7783577" width="62.5048299" height="2.30331359"></rect>
                <rect id="矩形" fill="#E6E6E6" x="53.5005029" y="39.6941324" width="50.9400597" height="2.30331359"></rect>
                <rect id="矩形" fill="#E6E6E6" x="53.5005029" y="47.5799939" width="29.7379814" height="2.30331359"></rect>
                <rect id="矩形" fill="#E6E6E6" x="53.5005029" y="55.4658525" width="44.8823226" height="2.30331359"></rect>
                <rect id="矩形" fill="#E6E6E6" x="35.0519412" y="22.5576208" width="4.95632928" height="4.91323816"></rect>
                <rect id="矩形" fill="#6C63FF" x="35.0519412" y="30.4733954" width="4.95632928" height="4.91323816"></rect>
                <rect id="矩形" fill="#E6E6E6" x="35.0519412" y="38.3891701" width="4.95632928" height="4.91323816"></rect>
                <rect id="矩形" fill="#E6E6E6" x="35.0519412" y="46.3049447" width="4.95632928" height="4.91323816"></rect>
                <rect id="矩形" fill="#E6E6E6" x="35.0519412" y="54.2207165" width="4.95632928" height="4.91323816"></rect>
                <rect id="矩形" fill="#E6E6E6" x="154.003864" y="33.7488885" width="16.5210995" height="16.3774624"></rect>
                <rect id="矩形" fill="#FFFFFF" x="5.89169115" y="72.2359269" width="191.399454" height="49.1323902"></rect>
                <rect id="矩形" fill="#E6E6E6" x="43.5878414" y="76.6025626" width="4.95632928" height="4.91323816"></rect>
                <rect id="矩形" fill="#6C63FF" x="35.0519412" y="76.6025626" width="4.95632928" height="4.91323816"></rect>
                <path d="M119.087196,87.346841 C116.022786,82.2038737 110.653783,78.8321474 104.653825,78.2827041 C98.6538661,77.7332609 92.7526315,80.0729209 88.7896669,84.57236 L87.5817938,83.5260756 C91.8826568,78.6412061 98.2882393,76.1008433 104.801146,76.6971259 C111.314052,77.2934085 117.14193,80.9537934 120.467524,86.5368955 L119.087196,87.346841 Z" id="路径" fill="#E6E6E6"></path>
                <path d="M119.843075,108.060771 L118.511926,107.173497 C122.535526,101.224696 122.75922,93.5150714 119.087196,87.3468468 L120.467532,86.5369012 C124.454692,93.2329334 124.211858,101.602968 119.843075,108.060771 L119.843075,108.060771 Z" id="路径" fill="#6C63FF"></path>
                <path d="M87.7489333,110.276002 C80.8879796,102.680163 80.8162839,91.2055813 87.5817938,83.5260756 L88.7896669,84.57236 C82.5573336,91.6470199 82.623383,102.217541 88.9436461,109.215124 L87.7489333,110.276002 Z" id="路径" fill="#6C63FF"></path>
                <path d="M102.926142,117.001686 C97.133305,116.997353 91.6154185,114.552134 87.7489563,110.276002 L88.9436692,109.215113 C92.8084058,113.495351 98.4510028,115.765778 104.231769,115.366627 C110.012536,114.967476 115.283125,111.943515 118.511949,107.17348 L119.843098,108.060749 C116.061219,113.651356 109.716438,117.004694 102.926142,117.001686 L102.926142,117.001686 Z" id="路径" fill="#6C63FF"></path>
                <rect id="矩形" fill="#E6E6E6" x="154.003864" y="87.2486037" width="16.5210995" height="16.3774624"></rect>
                <rect id="矩形" fill="#E6E6E6" x="34.3635606" y="97.8939525" width="16.5210995" height="16.3774624"></rect>
                <rect id="矩形" fill="#6C63FF" x="-1.13686838e-13" y="2.48689958e-14" width="203.009473" height="8.54960228"></rect>
                <ellipse id="椭圆形" fill="#FFFFFF" cx="6.40909757" cy="4.37100911" rx="1.59850101" ry="1.58460339"></ellipse>
                <ellipse id="椭圆形" fill="#FFFFFF" cx="12.4766075" cy="4.37100911" rx="1.59850101" ry="1.58460339"></ellipse>
                <ellipse id="椭圆形" fill="#FFFFFF" cx="18.5441145" cy="4.37100911" rx="1.59850101" ry="1.58460339"></ellipse>
            </g>
        </g>
    </g>
</svg>