<?xml version="1.0" encoding="UTF-8"?>
<svg width="234px" height="155px" viewBox="0 0 234 155" version="1.1" xmlns="http://www.w3.org/2000/svg" xmlns:xlink="http://www.w3.org/1999/xlink">
    <!-- Generator: Sketch 55.2 (78181) - https://sketchapp.com -->
    <title>编组 3</title>
    <desc>Created with Sketch.</desc>
    <g id="页面1" stroke="none" stroke-width="1" fill="none" fill-rule="evenodd">
        <g id="编组-3" fill-rule="nonzero">
            <path d="M72.272368,8.12377972 C80.2143731,0.996273418 92.6741667,-0.457149518 104.018121,0.111256021 C139.645807,1.89375585 171.809691,19.2251388 199.619079,38.8276509 C209.691323,45.9227481 219.605221,53.5712928 226.141912,63.3438793 C239.447863,83.2380731 235.501602,110.798263 216.987576,127.187289 C210.693351,132.761652 203.060615,137.037159 195.215101,140.826529 C181.283191,147.557647 166.252761,152.972458 150.433079,154.513136 C139.158401,155.610059 127.74517,154.717563 116.537294,153.186857 C85.2195682,148.906364 54.4783181,139.44291 28.7051509,123.253324 C17.4032571,116.150748 6.75206337,107.323011 2.09572272,95.8302502 C-2.56061794,84.3374891 0.457838806,69.8032598 11.9972505,62.9898723 C16.769876,60.1777607 22.4752541,58.9063272 28.0618732,57.71467 C36.2834566,55.9695653 44.6386439,54.2244606 52.0610785,50.6594609 C59.7309276,46.9747969 68.8011428,39.8447976 67.2844919,31.6851865 C65.6540305,22.9347328 64.3551044,15.243807 72.272368,8.12377972 Z" id="路径" fill="#6C63FF" opacity="0.1"></path>
            <g id="undraw_conference_call_b0w6" transform="translate(26.885106, 18.000000)">
                <rect id="矩形" fill="#E6E6E6" x="0" y="0" width="191.182979" height="125"></rect>
                <rect id="矩形" fill="#FFFFFF" x="6.23422757" y="15.8898305" width="179.753562" height="101.694915"></rect>
                <rect id="矩形" fill="#6C63FF" x="0" y="0" width="191.182979" height="8.47457627"></rect>
                <ellipse id="椭圆形" fill="#FFFFFF" cx="5.7147086" cy="3.70762712" rx="1.55855689" ry="1.58898305"></ellipse>
                <ellipse id="椭圆形" fill="#FFFFFF" cx="11.9489362" cy="3.70762712" rx="1.55855689" ry="1.58898305"></ellipse>
                <ellipse id="椭圆形" fill="#FFFFFF" cx="18.1831637" cy="3.70762712" rx="1.55855689" ry="1.58898305"></ellipse>
                <rect id="矩形" fill="#E6E6E6" x="28.0540241" y="24.3644068" width="35.3272895" height="38.1355932"></rect>
                <rect id="矩形" fill="#E6E6E6" x="77.9278446" y="24.3644068" width="35.3272895" height="38.1355932"></rect>
                <rect id="矩形" fill="#E6E6E6" x="127.801665" y="24.3644068" width="35.3272895" height="38.1355932"></rect>
                <rect id="矩形" fill="#E6E6E6" x="28.0540241" y="70.9745763" width="35.3272895" height="38.1355932"></rect>
                <rect id="矩形" fill="#E6E6E6" x="77.9278446" y="70.9745763" width="35.3272895" height="38.1355932"></rect>
                <rect id="矩形" fill="#E6E6E6" x="127.801665" y="70.9745763" width="35.3272895" height="38.1355932"></rect>
                <ellipse id="椭圆形" fill="#FFB9B9" cx="41.5615171" cy="41.3135593" rx="6.23422757" ry="6.3559322"></ellipse>
                <path d="M39.4834413,47.3163862 C39.4834413,47.3163862 40.2062502,50.6709073 40.2062502,51.0240089 C40.2062502,51.3771104 43.6395918,52.9661017 43.6395918,52.9661017 L46.7115302,52.4364416 L47.7957447,49.2584724 C47.7957447,49.2584724 45.9887168,46.6101698 45.9887168,45.5508475 L39.4834413,47.3163862 Z" id="路径" fill="#FFB9B9"></path>
                <path d="M36.6916631,36.3229543 C36.6916631,36.3229543 38.5335456,31.9886051 42.0638299,32.9888399 C45.5941143,33.9890747 47.5894866,35.489422 47.742981,36.9897668 C47.8964754,38.4901116 47.6662338,40.7406535 47.6662338,40.7406535 C47.6662338,40.7406535 47.2825138,37.6565966 44.8266583,38.3234116 C42.3708028,38.9902265 38.5335479,38.490119 38.5335479,38.490119 L37.9195886,44.4915254 C37.9195886,44.4915254 37.2288798,43.4079381 36.4614261,44.0747605 C35.6939724,44.7415829 34.2358213,37.6565966 36.6916631,36.3229543 Z" id="路径" fill="#2F2E41"></path>
                <path d="M60.5990508,61.0281404 L59.1354111,54.1378174 C58.4012957,51.841043 56.571772,49.9290686 56.571772,49.9290686 L47.5414623,46.6101695 L47.539161,46.6101695 C47.503068,48.3212393 46.4200496,49.8148077 44.8535299,50.3138684 C42.1057751,51.2686532 40.2141047,48.0507641 40.2141047,48.0507641 L32.5806854,54.1378174 C32.5806854,54.1378174 30.201139,56.2445968 30.3852431,60.2633506 L30.1320999,62.5 L61.3032377,62.5 L60.5990508,61.0281404 Z" id="路径" fill="#6C63FF"></path>
                <ellipse id="椭圆形" fill="#2F2E41" cx="91.4353377" cy="42.3728814" rx="8.31230342" ry="8.47457627"></ellipse>
                <ellipse id="椭圆形" fill="#2F2E41" cx="99.7476411" cy="50.8474576" rx="4.15615171" ry="4.23728814"></ellipse>
                <polygon id="路径" fill="#9F616A" points="95.3170493 45.5508475 97.6695652 51.5599112 91.7100192 54.0254237 91.1866207 52.8600597 89.3572618 48.786625"></polygon>
                <ellipse id="椭圆形" fill="#9F616A" cx="91.4353377" cy="43.4322034" rx="5.19518964" ry="5.29661017"></ellipse>
                <path d="M87.6548561,43.4322034 C90.811948,41.224465 91.7557264,40.6967076 95.3744514,41.5494908 L95.5914894,36.0169492 L86.240148,38.0727375 L87.6548561,43.4322034 Z" id="路径" fill="#2F2E41"></path>
                <path d="M107.549958,55.2238703 L107.406971,55.2400549 C107.403504,55.2350395 107.399511,55.2303859 107.395056,55.2261685 C106.827874,54.6759053 104.120656,53.6747569 102.102158,52.9811303 L102.099775,52.9811303 C100.817659,52.5395213 99.8143683,52.2227651 99.8143683,52.2227651 L97.374059,49.7881356 C96.7592155,50.4586414 95.4604181,50.9765493 94.2259647,51.3418593 C93.280931,51.6193962 92.3196081,51.8417551 91.3471624,52.0077409 L91.3447793,52.0077409 L90.839559,53.573025 C90.839559,53.573025 85.1129348,57.7787146 84.6506106,58.2272598 L84.6482275,58.2272598 L84.6482275,58.231884 C84.6113305,58.2829957 84.5959831,58.3458647 84.6053315,58.4076028 L84.6053315,58.4191632 C84.3164872,59.7615162 84.1679819,61.1287194 84.1620722,62.5 L109.098982,62.5 L109.098982,61.0803775 C109.098982,59.1289768 107.549958,55.2238703 107.549958,55.2238703 Z" id="路径" fill="#575A89"></path>
                <path d="M152.738575,63.559322 L140.710088,63.559322 L140.047521,56.912167 L140.008,56.5078043 L139.926632,55.706173 L139.594186,52.3554015 L139.178048,55.9544659 L138.299276,63.559322 L136.113969,63.559322 L136.195336,61.1922633 L136.276704,58.7920988 L136.311576,57.8249389 L136.760261,44.667781 C136.725864,42.5827827 137.374448,40.5454033 138.603824,38.8766452 C139.987846,37.0439318 142.141732,35.9840117 144.413486,36.01773 C146.730727,36.0100486 148.917787,37.1065939 150.323114,38.9806917 C151.593738,40.6661757 152.273764,42.7354401 152.255018,44.8593212 L152.461925,52.8236251 L152.738575,63.559322 Z" id="路径" fill="#2F2E41"></path>
                <ellipse id="椭圆形" fill="#FBBEBE" cx="144.426272" cy="43.4322034" rx="5.19518964" ry="5.29661017"></ellipse>
                <path d="M141.210203,46.9856246 C141.210203,46.9856246 142.793498,52.0542791 141.210203,53.5561019 C139.626908,55.0579247 139.231082,55.6211109 139.231082,55.6211109 L143.783057,61.440678 L151.699537,52.2420079 C151.699537,52.2420079 146.158008,50.7401828 147.543386,46.6101695 L141.210203,46.9856246 Z" id="路径" fill="#FBBEBE"></path>
                <polygon id="路径" fill="#FBBEBE" points="157.933765 63.559322 153.905592 63.559322 153.838456 62.7645285 153.777613 62.0301297 155.632251 61.7619775 157.868727 61.440678 157.893903 62.2644609"></polygon>
                <path d="M157.933765,62.27093 C157.933765,62.27093 157.165777,57.5305305 156.589788,55.6343674 C156.013799,53.7382043 155.437813,53.7382043 155.437813,53.7382043 L155.4377,53.7382043 L155.437728,53.7377494 C154.759778,53.0682027 153.129861,52.9492241 151.903881,52.9678874 C151.044041,52.977219 150.382626,53.0518723 150.382626,53.0518723 L143.534616,60.1859268 L140.085809,55.6577385 L140.085809,55.6554056 C139.775263,55.6792365 139.467638,55.731564 139.166914,55.8117109 C138.908204,55.8767936 138.654113,55.9586225 138.406286,56.056667 C137.338214,56.5074304 136.353823,57.1311133 135.493697,57.9020029 L135.491335,57.9020029 C134.995274,58.3429238 134.702361,58.667199 134.702361,58.667199 C133.942786,60.2267043 133.370399,61.8685534 132.996855,63.559322 L154.941667,63.559322 L154.991273,62.5841635 L154.991273,62.5822972 L157.933765,62.27093 Z" id="路径" fill="#6C63FF"></path>
                <path d="M139.622841,42.3728814 C143.319254,40.7203893 144.83768,40.7903641 149.4341,42.3728814 L150.6605,39.8952266 C150.659183,38.9238613 149.709876,38.1366861 148.538442,38.1355932 L140.314105,38.1355932 C139.14267,38.1366861 138.193362,38.923861 138.192044,39.8952266 L139.622841,42.3728814 Z" id="路径" fill="#2F2E41"></path>
                <path d="M44.7532615,79.4542052 C44.467164,79.4292217 44.1806826,79.4972949 43.9317774,79.6494048 C43.6956298,79.8635871 43.506036,80.1297731 43.3761074,80.4295546 C42.7749337,81.5524734 41.9610669,82.5303513 40.9860612,83.3012448 C40.2758921,83.8546281 39.3730156,84.5446408 39.4945182,85.5649495 C39.5586178,85.9018993 39.6756439,86.2249493 39.8406803,86.5205285 C40.4958192,87.9272555 42.2835973,89.0143573 42.1077496,90.6195509 C42.7586523,89.4604717 41.8880257,88.8873379 42.5389284,87.7282713 C42.8489045,87.1762902 43.3873865,86.5532087 43.855382,86.8998524 C44.0120854,87.0159196 44.1149776,87.2240918 44.2781333,87.3259349 C44.6674534,87.5689386 45.0816331,87.104368 45.4262547,86.775316 C46.614607,85.6405937 48.3045559,85.9378651 49.7833454,86.2914172 C50.4814769,86.4583269 51.2482923,86.6773104 51.660993,87.3870509 C52.2036048,88.3202105 51.1454686,89.3280316 50.8781141,90.3830612 C50.8338125,90.5655345 50.8764059,90.7595167 50.992112,90.9022388 C51.107818,91.0449608 51.2819411,91.1182959 51.4581381,91.098514 C51.9018553,91.0519539 52.4274846,91.0137951 52.4537476,90.806681 C53.0120142,90.8278161 53.6960526,90.7605707 53.9352493,90.1422415 C54.0083536,89.8975953 54.0469945,89.6427822 54.0499145,89.3860942 C54.1377096,88.3474323 54.5521421,87.3998777 54.8266907,86.4113219 C55.1012393,85.4227662 55.220618,84.2642449 54.7572957,83.3877857 C54.591942,83.0961719 54.3874453,82.8318013 54.1502764,82.6030393 C51.520991,79.8965223 48.0640692,79.4501868 44.7532615,79.4542052 Z" id="路径" fill="#2F2E41"></path>
                <path d="M42.7300641,91.9910797 C42.7300641,91.9910797 43.3220349,96.6584025 41.1514711,97.0317837 C38.9809073,97.4051649 43.1247129,103.752722 43.1247129,103.752722 L52.9909343,104.872881 L50.6230363,97.4051695 C50.6230363,97.4051695 49.0444458,96.8450908 50.0310655,93.1112348 C51.0176852,89.3773789 42.7300641,91.9910797 42.7300641,91.9910797 Z" id="路径" fill="#9F616A"></path>
                <ellipse id="椭圆形" fill="#9F616A" cx="47.2762257" cy="89.5127119" rx="5.7147086" ry="5.82627119"></ellipse>
                <path d="M37.4053654,109.110169 C38.4287903,104.892577 39.8419776,99.2115016 39.8419776,99.2115016 C39.8419776,99.2115016 40.3919489,99.3292831 41.257556,99.4621005 C42.5220068,99.6594298 43.7961981,99.780751 45.0738788,99.8254687 C46.7094458,99.8730825 48.4310952,99.760313 49.7629823,99.2766573 C50.2651061,99.1077679 50.7340929,98.8454624 51.1474754,98.502307 C51.3216216,98.3554324 51.4774715,98.1862112 51.6113643,97.9986185 C53.9260263,94.7633879 54.8896717,107.095355 54.8896717,107.095355 L55.0690102,109.110169 L37.4053654,109.110169 Z" id="路径" fill="#6C63FF"></path>
                <path d="M55.2630225,120.927739 C55.133681,120.927739 55.0043394,120.931864 54.8749979,120.940115 L55.0609263,120.585309 C55.1256133,120.696716 55.1902719,120.81224 55.2630225,120.927739 Z" id="路径" fill="#FFB8B8"></path>
                <path d="M44.7383379,80.5121891 C44.5118312,80.4943127 44.2849515,80.5411838 44.0811445,80.6479585 C43.8968702,80.7913053 43.7449923,80.9766917 43.6366088,81.1905712 C43.1369799,81.9910566 42.4856927,82.6713984 41.724573,83.1879051 C41.1564349,83.5728052 40.4341363,84.0527241 40.5313413,84.7623704 C40.5841053,85.0003056 40.6780157,85.2256922 40.8082683,85.427 C41.33419,86.415304 41.5435577,87.5591752 41.4046891,88.685518 L42.9668657,86.267022 C43.2148413,85.8831061 43.6456362,85.4497346 44.0200376,85.6908353 C44.1453976,85.771565 44.2277148,85.9163535 44.358241,85.9871861 C44.6696965,86.156203 45.0010365,85.8330866 45.2767399,85.6042075 C46.2274221,84.8149816 47.5793791,85.0217419 48.7624107,85.2676453 C49.3209154,85.3837368 49.9343671,85.5360458 50.2645253,86.0296901 C50.8131829,86.8500292 50.2402826,88.035358 50.5604939,88.9830508 C50.7415883,88.8480051 50.8636077,88.6405942 50.8987229,88.408123 C51.345332,88.4228276 51.8925687,88.3760577 52.0839232,87.9459876 C52.1421249,87.7774444 52.1731414,87.5996298 52.1756602,87.4200679 C52.2458944,86.6976583 52.5774364,86.0385979 52.7970783,85.3510359 C53.0167201,84.6634738 53.1122186,83.8576885 52.7415624,83.2480888 C52.6059648,83.041539 52.4423075,82.8575932 52.2559504,82.7022759 C50.1525276,80.8198317 47.386989,80.5093945 44.7383379,80.5121891 Z" id="路径" fill="#2F2E41"></path>
                <path d="M45.2045485,100.46894 C43.9259268,99.059995 43.166166,97.0057492 43.1314209,96.9142013 L43.1314209,96.9119684 C43.1314209,96.9119684 41.0930384,95.7865989 40.5324832,96.8673109 C39.971928,97.9480228 34.7393076,100.649803 34.1787524,100.649803 C34.1742836,100.651729 34.1696283,100.653225 34.1648543,100.654268 C33.9424853,100.72572 31.1582402,101.701487 30.44249,105.334376 C30.2480983,106.584488 30.1443833,107.846147 30.1320999,109.110169 L45.3713253,109.110169 C45.5288366,107.518129 45.6469702,106.028801 45.693297,104.742664 C45.760471,102.949665 45.6956134,101.55635 45.4130195,100.837364 C45.3678338,100.703156 45.2971408,100.578222 45.2045485,100.46894 L45.2045485,100.46894 Z" id="路径" fill="#2F2E41"></path>
                <path d="M57.8261547,101.984057 C57.8162741,101.938529 57.8088636,101.90019 57.8014531,101.864247 C57.7749563,101.761472 57.7297871,101.664101 57.6680646,101.576703 C57.6667405,101.574497 57.6658996,101.572049 57.6655945,101.569514 C56.5145012,99.8394543 49.1114402,97.4576271 49.1114402,97.4576271 L48.8347826,98.3849582 C48.8347826,98.3849582 48.8693648,99.3003083 48.918768,100.766785 C48.9681711,102.139811 49.0274549,103.994473 49.0842685,106.031247 C49.123791,107.36114 49.1583732,108.770123 49.1904852,110.169492 L60.2641998,110.169492 C59.6436851,107.390568 58.8291252,104.655784 57.8261547,101.984057 L57.8261547,101.984057 Z" id="路径" fill="#2F2E41"></path>
                <path d="M155.855689,109.110169 L156.883737,105.188748 L157.839852,104.872881 L157.845846,104.875221 C157.932766,104.900958 158.972803,105.244902 158.972803,106.548143 C158.972803,106.810195 158.92185,107.753114 158.837928,109.110169 L155.855689,109.110169 Z" id="路径" fill="#575A89"></path>
                <ellipse id="椭圆形" fill="#FFB8B8" cx="147.543386" cy="87.9237288" rx="6.23422757" ry="6.3559322"></ellipse>
                <polygon id="路径" fill="#FFB8B8" points="151.699537 92.1610169 151.132627 103.813559 142.348196 98.6979105 143.481529 92.1610169"></polygon>
                <polygon id="路径" fill="#6C63FF" points="154.816651 105.31683 154.23165 110.169492 149.549163 110.169492 144.467586 100.725502 143.034829 98.0666074 142.348196 97.632649 143.143897 97.4576271 143.771038 97.8963806 150.788572 102.813777 151.913955 99.5459021 151.943701 99.4619875 152.226286 98.6396243"></polygon>
                <path d="M143.285843,81.8793127 C143.285843,81.8793127 144.100749,77.6570415 148.718565,78.5014933 L148.175291,78.782978 C148.175291,78.782978 152.521474,78.2200085 151.978199,80.7533737 C151.978199,80.7533737 155.509469,83.0052541 154.69456,85.5386169 C154.215372,87.0069289 153.851996,88.5131273 153.608013,90.0423729 L152.793107,89.1979211 C152.793107,89.1979211 151.978199,83.5682261 147.088744,84.1311931 C143.421655,84.5534263 141.927653,86.3478858 141.545665,87.6409574 C141.369793,88.2489586 141.145316,88.8407095 140.874569,89.4100635 L140.569472,89.479401 C140.569472,89.479401 138.93966,83.2867365 143.285843,81.8793127 Z" id="路径" fill="#2F2E41"></path>
                <path d="M157.048182,105.094028 L157.043472,105.091809 L153.560022,102.043092 L153.560022,99.9839872 L150.8703,97.9870108 L150.83026,99.2007287 L150.552338,107.452679 L146.079674,101.65701 L143.064924,97.7518113 L142.523211,97.0528696 L142.655106,96.3983051 L140.985218,98.1800518 L134.941586,102.451363 L134.423426,102.817475 C133.829023,103.377779 133.281,103.980109 132.784155,104.619191 C132.621642,104.847734 131.882086,106.667202 130.918779,109.110169 L157.827778,109.110169 C157.893725,107.823229 157.933765,106.929027 157.933765,106.680515 C157.933765,105.444597 157.116495,105.118431 157.048182,105.094028 Z" id="路径" fill="#2F2E41"></path>
                <path d="M95.4920127,81.5677966 L95.4920127,81.5677966 C90.9561852,81.5677966 87.2791859,85.4697251 87.2791859,90.282991 L87.2791859,96.3983051 L89.246115,96.3983051 L90.3848706,94.1325246 L90.1001757,96.3983051 L102.74295,96.3983051 L103.778183,94.3385082 L103.519383,96.3983051 L104.942831,96.3983051 L104.942831,91.5967025 C104.942831,86.0578906 100.711552,81.5677966 95.4920127,81.5677966 Z" id="路径" fill="#2F2E41"></path>
                <path d="M88.3182239,109.110169 L83.1739448,109.110169 L83.1253483,105.073703 C83.1230342,105.031401 83.1230342,104.991326 83.1230342,104.949024 L84.1528157,103.833597 L84.1713286,103.813559 L88.1030111,106.209168 L88.3182239,109.110169 Z" id="路径" fill="#D0CDE1"></path>
                <ellipse id="椭圆形" fill="#FBBEBE" cx="94.0329325" cy="90.5720339" rx="5.7147086" ry="5.82627119"></ellipse>
                <path d="M90.3962997,93.5920978 C90.3962997,93.5920978 92.1397688,102.655585 91.3472877,103.609632 C90.5548067,104.56368 99.7476411,101.860536 99.7476411,101.860536 C99.7476411,101.860536 96.7362019,95.6592013 98.3211639,92.1610169 L90.3962997,93.5920978 Z" id="路径" fill="#FBBEBE"></path>
                <path d="M106.708215,98.6588535 L106.70584,98.6588535 C106.569625,98.3490331 106.334369,98.1022697 106.043041,97.9636327 C104.909869,97.4498849 103.933488,97.0562672 103.130528,96.75722 C101.710279,96.2327453 100.160872,96.2845558 98.7736358,96.9029097 C98.6382372,96.9616968 98.5052047,97.0255957 98.3745312,97.0971626 C98.3745312,97.0971626 92.7229251,98.255012 92.0506239,98.1093223 C92.0007358,98.0990985 91.9484721,98.0914306 91.8985841,98.0863187 C91.79702,98.0706119 91.6946982,98.0612244 91.5921287,98.0582031 C90.2770422,97.9924921 88.9726728,98.3406739 87.8386451,99.060139 C85.9832838,100.217988 83.2323129,102.270423 83.1752979,104.269183 L83.1230342,104.333082 L83.1752979,109.110169 L107.981549,109.110169 C108.031437,104.532447 108.059944,101.092126 108.059944,100.859534 C108.059944,100.136205 106.708215,98.6588535 106.708215,98.6588535 Z" id="路径" fill="#6C63FF"></path>
                <path d="M97.9982854,84.248151 C97.2449937,83.2427134 96.0634836,82.6434298 94.8023597,82.6271186 L94.6507331,82.6271186 C91.7272223,82.6271186 89.3572618,85.2565506 89.3572618,88.5001155 L89.3572618,88.5001268 L90.3368467,88.5001268 L90.4950446,87.3032422 L90.7269995,88.5001268 L96.5369052,88.5001268 L97.0236629,87.4875383 L96.9019638,88.5001268 L98.044953,88.5001268 C98.5783112,91.1328604 97.8119737,93.7655865 95.7459406,96.3983051 L97.6929668,96.3983051 L98.6664799,94.3731282 L98.4231089,96.3983051 L102.134624,96.3983051 L102.864755,91.7403856 C102.864755,88.2520411 100.825564,85.2939987 97.9982854,84.248151 Z" id="路径" fill="#2F2E41"></path>
                <ellipse id="椭圆形" fill="#2F2E41" cx="98.7086031" cy="81.5677966" rx="3.11711378" ry="3.1779661"></ellipse>
            </g>
        </g>
    </g>
</svg>